<svg xmlns="http://www.w3.org/2000/svg" xmlns:xlink="http://www.w3.org/1999/xlink" width="360" height="368" viewBox="0 0 360 368" fill="none">
<rect x="0" y="0" width="0" height="0" fill="rgba(249, 249, 249, 1)" />
<path     fill="#000000"  d="M30 -4.04133e-14L330 -4.04133e-14C346.569 -4.04133e-14 360 13.4315 360 30L360 174L0 174L8.81746e-15 30C9.83199e-15 13.4315 13.4315 -4.24424e-14 30 -4.04133e-14Z">
</path>
<path     fill="#000000"  d="M153 67L209 67C225.569 67 239 80.4315 239 97L239 241L123 241L123 97C123 80.4315 136.431 67 153 67Z">
</path>
<path     fill="#000000"  d="M30 368L330 368C346.569 368 360 354.569 360 338L360 194L0 194L8.81746e-15 338C9.83199e-15 354.569 13.4315 368 30 368Z">
</path>
<path d="M180.5 57C111.178 57 55 113.168 55 182.49C55 251.8 111.19 308 180.5 308C249.81 308 306 251.8 306 182.49C306 113.168 249.799 57 180.5 57ZM215.26 235.14L169.09 193.91L169.09 91.23L191.91 91.23L191.91 182.5L231.33 216.05L215.26 235.14Z"   fill="#FFFFFF" >
</path>
</svg>
